Coordinates
version=1
nRows=21
nColumns=12
inDegrees=yes

Units are S.I. units (second, meters, Newtons, ...)
Angles are in degrees

endheader
time	SC_y	SC_z	SC_x	AC_y	AC_z	AC_x	GH_y	GH_z	GH_yy	EL_x	PS_y
       0.0              -33.33         -4.353          7.226          38.55         -13.23          15.52          77.68          12.17         -84.71          116.9          92.34
   0.00975              -33.33          -4.35          7.227          38.55         -13.23          15.52          77.65          12.18         -84.71          116.9          92.34
    0.0195              -33.33         -4.347          7.228          38.56         -13.23          15.51          77.62          12.19          -84.7          116.9          92.33
   0.02925              -33.33         -4.343          7.228          38.56         -13.23          15.51          77.59           12.2          -84.7          116.9          92.31
     0.039              -33.33         -4.339          7.229          38.56         -13.22          15.51          77.56          12.21         -84.69          116.9           92.3
   0.04875              -33.33         -4.335           7.23          38.57         -13.22           15.5          77.53          12.22         -84.69          116.9          92.29
    0.0585              -33.33          -4.33           7.23          38.57         -13.22           15.5          77.49          12.24         -84.68          116.9          92.28
   0.06825              -33.33         -4.325          7.231          38.58         -13.22           15.5          77.45          12.25         -84.67          116.9          92.27
     0.078              -33.33          -4.32          7.232          38.58         -13.22          15.49          77.41          12.26         -84.66          116.9          92.25
   0.08775              -33.33         -4.315          7.233          38.59         -13.22          15.49          77.36          12.28         -84.66          116.9          92.24
    0.0975              -33.33         -4.309          7.234           38.6         -13.22          15.48          77.31           12.3         -84.65          116.9          92.22
    0.1073              -33.34         -4.302          7.235           38.6         -13.22          15.48          77.26          12.31         -84.64          116.9           92.2
     0.117              -33.34         -4.295          7.236          38.61         -13.22          15.47           77.2          12.33         -84.63          116.9          92.18
    0.1268              -33.34         -4.288          7.238          38.62         -13.22          15.47          77.14          12.35         -84.62          116.9          92.16
    0.1365              -33.34          -4.28          7.239          38.62         -13.22          15.46          77.08          12.38          -84.6          116.9          92.14
    0.1463              -33.34         -4.271          7.241          38.63         -13.22          15.45          77.01           12.4         -84.59          116.9          92.11
     0.156              -33.34         -4.261          7.242          38.64         -13.22          15.45          76.93          12.43         -84.58          116.9          92.09
    0.1658              -33.34         -4.251          7.244          38.65         -13.22          15.44          76.84          12.45         -84.56          116.9          92.06
    0.1755              -33.34          -4.24          7.246          38.67         -13.22          15.43          76.75          12.49         -84.54          116.9          92.02
    0.1853              -33.34         -4.227          7.248          38.68         -13.22          15.42          76.65          12.52         -84.53          116.9          91.99
     0.195              -33.34         -4.213          7.251          38.69         -13.22          15.41          76.54          12.56         -84.51          116.9          91.95
